<svg xmlns="http://www.w3.org/2000/svg" viewBox="0 0 25.098238 34.00033" height="34" width="25.098"><path d="M5.233 23.237c.357-.115.575-.37.86-.557-.064-.155-.072-.366-.152-.506-.21.38-.586.596-.708 1.063zm8.755.101c-.381.29-.825.525-1.012.91 1.056-.832 2.329-1.719 3.239-2.529-.833.475-1.518 1.08-2.227 1.62zm-1.974.101c.635.345.984-.322 1.418-.658.773-.598 1.673-1.184 2.276-1.821-1.33.727-2.519 1.596-3.694 2.48zm-.86-1.923C9.12 22.71 7.54 24.362 5.74 25.767a46.177 46.177 0 0 0 6.073-3.845c1.664-1.249 3.388-2.508 4.96-3.746.212-.167.506-.285.607-.556-.096.01-.112-.058-.203-.05-1.87 1.42-3.968 2.741-6.022 3.946zm-.253-1.67c1.214-.692 2.199-1.614 3.391-2.328.007-.06.09-.115 0-.152-1.141.817-2.328 1.586-3.391 2.48zm-1.974-2.733c.011-.063.08-.103-.05-.101-.836.497-1.737.93-2.278 1.72.831-.484 1.512-1.12 2.328-1.619zm7.136-.101c.696-.096 1.343-.242 1.518-.86-.735-.135-1.003.61-1.518.86zm1.872-1.417c.118.035.136.168.254.202.077-.597.651-.698.91-1.113-.43.261-.789.595-1.164.911zm-.759-.961c-1.656.89-3.308 1.826-4.858 2.834-2.076 1.349-4.339 2.53-5.617 4.656 3.339-2.166 6.095-5.37 10.323-6.732.65-.548 1.596-1.068 2.025-1.67-.575.36-1.256.58-1.873.912zm-7.49.455c-.818.562-1.636 1.162-2.176 1.923 2.346-1.753 5.397-2.801 7.389-4.909.01-.063.079-.103-.05-.101-1.74.982-3.553 1.981-5.163 3.087zm2.075-3.593c-1.46 1.137-3.32 1.876-4.453 3.34 1.697-.884 3.268-1.894 4.96-2.783.032-.2-.29-.442-.507-.557zm3.644 1.063c.78-.368 1.53-.765 2.075-1.367-1.268-.12-1.53.764-2.075 1.367zm-8.249.1c.817-.56 1.421-1.071 2.277-1.618.284-.182 1.357-.624.911-.911-1.93 1.474-4.227 2.879-6.173 4.301-.257.188-.608.308-.76.607 1.156-.694 2.639-1.618 3.745-2.378zm1.265-5.11c1.71.99 3.242 2.156 4.504 3.592 1.457-1.174 3.17-2.092 5.415-2.479.49-2.09.992-4.17 1.468-6.275-2.342.323-4.259 1.071-5.77 2.226a10.168 10.168 0 0 0-4.706-3.29c-.26 2.119-.618 4.14-.91 6.226zm16.65 8.248c.026.152.046.257 0 .405-.325.65-.995.418-1.62.658-.507-.224-.07-.787.102-1.063-.544.102-.845.994-1.416.912-.553-.08-.337-.828-.254-1.265-.458.164-1.127 1.111-1.873.91-1.053-.284.487-1.154.76-1.417.426-.412.676-.756.96-1.163-1.258.546-2.147 1.461-3.137 2.277-.189.103-.296-.238-.303 0 .066.59-.358.688-.506 1.062.954.482.225 1.05-.354 1.468-.396.286-.73.485-1.012.709-.752.596-1.486 1.041-1.823 1.467 1.22-.584 2.093-1.517 3.542-1.873.13.141.368.173.406.406-.297.332.103.413.05.758-.093.617-1.275.749-1.467 1.215.432-.33 1.445-.428 1.467.253.02.594-1.25 1.379-1.77 1.822-.76.647-1.524 1.135-1.874 1.62 1.306-.72 2.281-1.768 3.796-2.278.624.546-.438.945-.86 1.215-1.13.724-2.595 1.574-3.138 2.378.235-.278.692-.31 1.063-.556.576-.384 1.792-2.035 2.783-1.771.507.134.42 1.091.05 1.417.16.195.424.285.456.606-.15.311-.408.503-.202.911-.252.458-.87.817-.962 1.266.211-.309 1.003-.384 1.012.152-.457.673-1.417 1.112-1.67 1.822.37-.243 2.054-1.707 2.177-.76.077.596-.969.958-.962 1.469.328-.322 1.037-.534 1.012.05-.015.366-.652.47-.708.91 1.133-.01.168.718 0 1.316-.03.107.04.28 0 .354-.149.278-.517.347-.556.506-.006.024-.026.034-.05.035h-.008a.188.188 0 0 1-.095-.035c-.208-.17-.36-.522-.1-.758-.65.099-.735-.477-.507-.86-.151.035-.527.032-.607-.152-.238-.632.49-.991.506-1.366-.752.903-1.74.129-.961-.81-.315.177-.678.068-.76-.253.165-.461.736-.783.81-1.164-.242.396-1.631.837-1.519 0 .048-.352 1.059-.76 1.469-1.064.595-.44 1.134-.808 1.315-1.114-.683.196-1.943 1.603-2.986 1.469-.106-.014-.16-.197-.455-.304-.177-.064-.36.013-.456-.05-.398-.262-.287-.715-.101-1.164-1.269-.084-.158-1.16.304-1.57.832-.736 1.563-1.291 2.328-1.922.41-.338.8-.709 1.012-1.013-1.09.59-2.357 1.756-3.492 2.581-.69.502-1.915 1.328-1.72-.202-.842-.399-1.767.182-2.329.658.188.141.132.346.102.506-.203 1.06-2.16 1.92-2.834 2.48.024.177.075.33.05.557-.386.676-.956 1.168-1.62 1.568-.358.89-1.278 1.219-1.922 1.822-.097.123.055.246-.051.405-.35.596-1.683.509-1.012-.355-.878-.138-.091-.892.253-1.01-.414.028-.542-.079-.607-.305-.262-.903 1.325-1.253 1.872-1.569 1.782-1.028 4.018-2.349 5.112-3.593-1.833.867-3.134 2.265-4.96 3.137-.148.014-.156-.113-.304-.1-.276.387-1.035.726-1.062 0-.033-.879 1.984-1.75 2.125-2.279-.438.375-1.328.396-1.417-.303 1.196-1.51 3.241-2.47 4.859-3.492.437-.276.943-.495 1.214-.91-.842.507-1.6 1.1-2.682 1.367-.249.34-2.753 2.402-2.48.404.078-.565.751-1.33 1.215-1.772.55-.524 1.138-.974 1.67-1.366 1.231-.908 2.288-1.895 3.34-2.733 2.136-1.702 4.08-2.927 6.174-4.402.282-.2.687-.296.81-.607-4.232 2.144-7.773 4.98-11.589 7.54-.821-.683.056-1.93.657-2.277-.42-.475.194-.993.253-1.266-.165.088-.483.236-.658.152-.512-.376.116-.916.304-1.215-.305-.979.725-1.456 1.214-1.973-.443.178-.844.592-1.366 1.062-.476.43-1.455 1.635-1.72.658-.72.195-1.507 1.214-2.581 1.013-1.251-.235.009-1.111.455-1.418 1.153-.79 2.4-1.536 3.239-2.276-1.87 1.182-3.672 2.434-5.617 3.542-.092-.077-.21-.127-.253-.253A.25.25 0 0 1 0 15.555v-.006a.4.4 0 0 1 .02-.106c.134-.323.442-.414.709-.607.203-.147.651-.38.76-.557.087-.145-.02-.407.1-.557.106-.131.656-.38.962-.557 2.227-1.276 4.518-2.7 6.68-3.896-.618-.394-1.279-.746-1.923-1.114.37-2.734.866-5.35 1.164-8.155a.44.44 0 0 1 .05.007c2.503.484 4.162 1.81 5.77 3.188a13.398 13.398 0 0 1 6.882-1.973c-.63 2.827-1.328 5.588-2.024 8.35-.42.06-.918.19-1.366.304-.453.115-1.013.153-1.164.455.016.068.072.097.05.202.764-.146 1.862.161 1.519.962.493-.31 1.468-.22 1.417.354-.02.224-.617.556-.911.76-1.042.72-2.328 1.454-3.087 2.075 1.169-.56 2.75-1.442 4.25-1.974.431-.153 1.371-.542 1.418.05.046.592-.904.686-1.164 1.114.542-.57 3.075-1.293 2.227.253.08.223.243-.278.556-.152.478.425-.24 1.184-.202 1.62.309-.51 1.962-1.501 1.771-.052a.421.421 0 0 1 .607.254" fill="#fff" fill-rule="evenodd"/></svg>