<svg xmlns="http://www.w3.org/2000/svg" viewBox="0 0 25.098238 34.00033" height="34" width="25.098"><path d="M5.233 23.237c.357-.115.575-.37.86-.557-.064-.155-.072-.366-.152-.506-.21.38-.585.596-.707 1.063zm8.755.1c-.38.29-.825.526-1.012.912 1.056-.834 2.33-1.72 3.24-2.53-.834.474-1.52 1.08-2.228 1.618zm-1.974.102c.635.344.984-.323 1.418-.66.773-.597 1.673-1.183 2.276-1.82-1.33.727-2.52 1.596-3.694 2.48zm-.86-1.924C9.12 22.71 7.54 24.362 5.74 25.766a46.177 46.177 0 0 0 6.072-3.844c1.664-1.25 3.388-2.508 4.96-3.746.212-.167.506-.285.607-.556-.097.01-.113-.058-.204-.05-1.87 1.42-3.968 2.74-6.022 3.946zm-.253-1.67c1.215-.692 2.2-1.614 3.392-2.328.007-.06.09-.115 0-.152-1.14.817-2.328 1.586-3.39 2.48zm-1.973-2.733c.01-.063.08-.103-.05-.1-.836.496-1.737.928-2.278 1.72.83-.485 1.51-1.12 2.327-1.62zm7.136-.1c.696-.097 1.343-.243 1.518-.86-.734-.136-1.002.608-1.517.86zm1.872-1.418c.118.035.136.168.254.202.076-.597.65-.698.91-1.113-.43.26-.79.595-1.165.91zm-.76-.96c-1.655.888-3.307 1.825-4.857 2.833-2.076 1.35-4.34 2.53-5.617 4.656 3.34-2.166 6.096-5.37 10.324-6.732.65-.548 1.596-1.068 2.025-1.67-.576.36-1.257.58-1.874.912zm-7.49.454c-.817.56-1.635 1.16-2.175 1.922 2.346-1.753 5.397-2.8 7.39-4.91.01-.062.078-.102-.052-.1-1.74.982-3.552 1.98-5.162 3.087zm2.076-3.594c-1.46 1.137-3.318 1.876-4.452 3.34 1.697-.884 3.268-1.894 4.96-2.783.032-.2-.29-.442-.507-.557zm3.645 1.063c.78-.37 1.53-.766 2.075-1.368-1.268-.12-1.53.764-2.075 1.367zm-8.25.1c.818-.56 1.422-1.072 2.278-1.62.284-.18 1.357-.623.91-.91-1.93 1.474-4.226 2.88-6.172 4.3-.256.19-.607.31-.76.608 1.157-.694 2.64-1.618 3.746-2.378zm1.266-5.11c1.71.988 3.243 2.155 4.505 3.59 1.457-1.173 3.17-2.09 5.415-2.478.49-2.09.992-4.17 1.468-6.275-2.342.323-4.26 1.07-5.77 2.226a10.168 10.168 0 0 0-4.706-3.29c-.26 2.12-.618 4.14-.91 6.226zm16.65 8.247c.027.152.047.257 0 .405-.324.65-.994.418-1.618.658-.508-.224-.07-.787.1-1.063-.543.102-.844.994-1.415.912-.553-.08-.337-.83-.254-1.266-.458.164-1.127 1.11-1.873.91-1.053-.284.487-1.154.76-1.417.426-.412.676-.756.96-1.163-1.258.546-2.147 1.46-3.137 2.277-.19.104-.296-.237-.303 0 .066.59-.358.69-.506 1.063.954.482.225 1.05-.354 1.468-.396.287-.73.486-1.012.71-.752.596-1.486 1.04-1.823 1.467 1.22-.584 2.093-1.517 3.542-1.873.13.14.368.173.406.406-.297.332.103.413.05.758-.093.617-1.275.75-1.467 1.215.432-.33 1.445-.428 1.467.253.02.594-1.25 1.38-1.77 1.822-.76.647-1.524 1.135-1.874 1.62 1.305-.72 2.28-1.768 3.795-2.278.624.546-.438.945-.86 1.215-1.13.724-2.595 1.574-3.138 2.378.235-.278.692-.31 1.063-.556.576-.384 1.792-2.035 2.783-1.77.507.133.42 1.09.05 1.416.16.195.424.285.456.606-.152.31-.41.502-.203.91-.252.458-.87.817-.962 1.266.21-.31 1.003-.384 1.012.152-.457.673-1.417 1.112-1.67 1.822.37-.243 2.054-1.707 2.177-.76.077.596-.97.958-.962 1.47.328-.323 1.037-.535 1.012.05-.015.365-.652.47-.708.91 1.133-.01.168.717 0 1.315-.03.107.04.28 0 .354-.15.277-.517.346-.556.505-.006.024-.026.034-.05.035h-.008a.188.188 0 0 1-.095-.035c-.208-.17-.36-.522-.1-.758-.65.1-.735-.477-.507-.86-.15.035-.527.032-.607-.152-.238-.632.49-.99.506-1.366-.753.902-1.74.128-.962-.812-.315.178-.678.07-.76-.252.165-.46.736-.783.81-1.164-.242.396-1.63.837-1.52 0 .05-.352 1.06-.76 1.47-1.064.595-.44 1.134-.808 1.315-1.114-.683.196-1.943 1.603-2.986 1.47-.106-.015-.16-.198-.455-.305-.177-.065-.36.012-.456-.052-.398-.26-.287-.714-.1-1.163-1.27-.084-.16-1.16.303-1.57.83-.736 1.562-1.29 2.327-1.922.41-.338.8-.71 1.012-1.013-1.09.59-2.358 1.756-3.493 2.58-.69.503-1.915 1.33-1.72-.2-.842-.4-1.767.18-2.33.657.19.14.133.346.103.506-.203 1.06-2.16 1.92-2.834 2.48.024.177.075.33.05.557-.386.676-.956 1.168-1.62 1.568-.358.89-1.278 1.22-1.922 1.822-.097.123.055.246-.05.405-.35.596-1.684.51-1.013-.355-.877-.138-.09-.892.254-1.01-.414.028-.542-.08-.607-.305-.262-.903 1.325-1.253 1.872-1.57 1.78-1.027 4.017-2.348 5.11-3.592-1.832.867-3.133 2.265-4.96 3.137-.147.014-.155-.113-.303-.1-.276.387-1.035.726-1.062 0-.033-.88 1.984-1.75 2.125-2.28-.438.376-1.328.397-1.417-.302 1.196-1.51 3.24-2.47 4.86-3.492.436-.276.942-.495 1.213-.91-.842.507-1.6 1.1-2.682 1.367-.25.34-2.753 2.402-2.48.404.078-.565.75-1.33 1.215-1.772.55-.524 1.137-.974 1.67-1.366 1.23-.91 2.287-1.896 3.34-2.734 2.135-1.702 4.08-2.927 6.173-4.402.282-.2.687-.296.81-.607-4.232 2.144-7.773 4.98-11.59 7.54-.82-.683.057-1.93.658-2.277-.42-.475.195-.993.254-1.266-.165.088-.483.236-.658.152-.512-.376.116-.916.304-1.215-.305-.978.725-1.455 1.214-1.972-.443.178-.844.592-1.366 1.062-.476.43-1.455 1.635-1.72.658-.72.195-1.507 1.214-2.58 1.013-1.252-.234.008-1.11.454-1.417 1.153-.79 2.4-1.536 3.24-2.276C4.02 13.54 2.218 14.79.273 15.9c-.092-.078-.21-.128-.253-.254a.25.25 0 0 1-.02-.09v-.007a.4.4 0 0 1 .02-.107c.134-.323.442-.414.71-.607.202-.147.65-.38.758-.557.088-.146-.018-.408.1-.558.107-.13.657-.38.963-.557 2.228-1.276 4.52-2.7 6.68-3.896-.617-.395-1.278-.747-1.922-1.115.37-2.734.866-5.35 1.164-8.155a.44.44 0 0 1 .05.007c2.503.484 4.162 1.81 5.77 3.188a13.398 13.398 0 0 1 6.882-1.973c-.63 2.827-1.328 5.588-2.024 8.35-.42.06-.918.19-1.366.304-.453.115-1.013.153-1.164.455.016.07.072.098.05.203.764-.146 1.862.16 1.52.962.492-.31 1.467-.22 1.416.354-.02.223-.617.555-.91.758-1.043.72-2.33 1.455-3.088 2.076 1.17-.56 2.75-1.442 4.25-1.974.43-.153 1.37-.542 1.418.05.046.592-.904.686-1.164 1.114.542-.57 3.075-1.293 2.227.253.078.223.242-.278.555-.152.478.425-.24 1.184-.202 1.62.31-.51 1.962-1.5 1.77-.052a.42.42 0 0 1 .608.254" fill="#fff" fill-rule="evenodd"/></svg>